# xmcd
#
# Track frame offsets:
#	150
#	12191
#	33881
#	53113
#	63956
#	77018
#	90600
#	106924
#	125206
#	143867
#	157716
#	184083
#
# Disc length: 2682 seconds
#
# Revision: 0
# Processed by: cddbd v1.5.1PL2 Copyright (c) Steve Scherf et al.
# Submitted via: audiograbber 1.83.01
#
DISCID=900a780c
DTITLE=Hawk Mountain - Songs for Friends
DYEAR=1996
DGENRE=Country
TTITLE0=TWO OF A KIND WORKIN' ON A FULL HOUSE
TTITLE1=GONE COUNTRY
TTITLE2=I SWEAR
TTITLE3=BLUE TRAIN
TTITLE4=MUCH TOO YOUNG
TTITLE5=THREE TIME LOOSER
TTITLE6=THANK GOD FOR THE RADIO
TTITLE7=WHAT KIND OF LOVE
TTITLE8=I SANG DIXIE
TTITLE9=TEQUILA SUNRISE
TTITLE10=FRIENDS IN LOW PLACE (zensiert)
TTITLE11=BONUS TRACK (unplagged)
EXTD=
EXTT0=
EXTT1=
EXTT2=
EXTT3=
EXTT4=
EXTT5=
EXTT6=
EXTT7=
EXTT8=
EXTT9=
EXTT10=
EXTT11=
PLAYORDER=
